<?xml version="1.0" encoding="UTF-8"?>
<svg version="1.1" xmlns="http://www.w3.org/2000/svg" width="727" height="428">
<path d="M0 0 C239.91 0 479.82 0 727 0 C727 141.24 727 282.48 727 428 C487.09 428 247.18 428 0 428 C0 286.76 0 145.52 0 0 Z " fill="#FBFBFB" transform="translate(0,0)"/>
<path d="M0 0 C0.96341309 0.55800293 1.92682617 1.11600586 2.91943359 1.69091797 C4.0211792 2.32505615 5.1229248 2.95919434 6.25805664 3.61254883 C7.44471772 4.30263763 8.63132118 4.99282553 9.81787109 5.68310547 C11.04647527 6.39272269 12.27540322 7.10177961 13.50463867 7.81030273 C15.42260315 8.9161189 17.34021915 10.02251119 19.25660706 11.13105774 C23.90345768 13.81897486 28.56214292 16.48541184 33.22802734 19.14013672 C33.87414978 19.50798279 34.52027222 19.87582886 35.18597412 20.25482178 C37.70628717 21.68956461 40.22668732 23.12415005 42.74810791 24.5569458 C44.4844632 25.54410014 46.21955905 26.53346879 47.95458984 27.52294922 C48.94418701 28.08618896 49.93378418 28.64942871 50.95336914 29.22973633 C53.19287109 30.55810547 53.19287109 30.55810547 54.19287109 31.55810547 C54.28720095 33.76678378 54.31029541 35.97852068 54.30639648 38.18920898 C54.30654251 38.88185852 54.30668854 39.57450806 54.30683899 40.28814697 C54.30613984 42.58779993 54.29834738 44.88737284 54.29052734 47.18701172 C54.28866317 48.77741959 54.28723927 50.36782804 54.28623962 51.95823669 C54.28241438 56.15206477 54.27258405 60.34585842 54.26153564 64.53967285 C54.25132166 68.81599461 54.24674203 73.09232191 54.24169922 77.36865234 C54.23096178 85.76515255 54.21388529 94.16162473 54.19287109 102.55810547 C53.12190941 103.17587357 53.12190941 103.17587357 52.02931213 103.80612183 C48.7101048 105.72079515 45.39092854 107.63552233 42.07177734 109.55029297 C41.47488161 109.89463253 40.87798588 110.23897209 40.2630024 110.59374619 C33.60173175 114.43660453 26.94077172 118.27999317 20.28271484 122.12841797 C19.2340625 122.73427734 18.18541016 123.34013672 17.10498047 123.96435547 C15.05520125 125.14873217 13.00574088 126.33366079 10.95654297 127.51904297 C8.9516601 128.67691632 6.94327851 129.82876299 4.93066406 130.97314453 C3.15340866 132.00203182 1.3952939 133.06499709 -0.33789062 134.16650391 C-1.1102002 134.6437793 -1.88250977 135.12105469 -2.67822266 135.61279297 C-3.3362085 136.03802246 -3.99419434 136.46325195 -4.67211914 136.90136719 C-8.72113501 138.14686206 -12.05927876 135.94212793 -15.64599609 134.1003418 C-17.11020996 133.25379028 -17.11020996 133.25379028 -18.60400391 132.39013672 C-20.27184937 131.43131592 -20.27184937 131.43131592 -21.97338867 130.453125 C-23.16804439 129.75908201 -24.36262272 129.06490578 -25.55712891 128.37060547 C-26.79244798 127.65772355 -28.02804784 126.94532799 -29.26391602 126.23339844 C-31.82347959 124.75780592 -34.3811929 123.27907812 -36.9375 121.79785156 C-40.72912765 119.60155539 -44.52722208 117.41663558 -48.32666016 115.23388672 C-57.38334402 110.02679337 -57.38334402 110.02679337 -61.81103516 107.47216797 C-62.70636963 106.95605957 -63.6017041 106.43995117 -64.52416992 105.90820312 C-66.31900954 104.84676979 -68.07213146 103.71477043 -69.80712891 102.55810547 C-70.25537109 99.67599487 -70.25537109 99.67599487 -70.35400391 95.94042969 C-70.37532379 95.26048447 -70.39664368 94.58053925 -70.41860962 93.87998962 C-70.48296105 91.6242767 -70.52278034 89.36915333 -70.55712891 87.11279297 C-70.57060364 86.34130039 -70.58407837 85.56980782 -70.59796143 84.77493668 C-70.6664445 80.68740563 -70.71439784 76.60016922 -70.74755859 72.51220703 C-70.78625321 68.3000651 -70.89968254 64.09343163 -71.03027344 59.88328362 C-71.11651398 56.63682868 -71.14453912 53.3916664 -71.15734863 50.14416885 C-71.17374856 48.59295954 -71.21208824 47.04181318 -71.27331543 45.49172592 C-71.45394784 40.62375657 -71.37895087 36.23395257 -69.80712891 31.55810547 C-65.86785852 27.76983638 -61.8011688 25.79620982 -56.80712891 23.55810547 C-54.65132804 22.36236022 -52.50394317 21.15116872 -50.36962891 19.91748047 C-48.18398401 18.71098869 -45.99643758 17.50793611 -43.80712891 16.30810547 C-41.44779532 15.01481327 -39.08955493 13.71957257 -36.73291016 12.42138672 C-36.14947342 12.10001236 -35.56603668 11.778638 -34.96492004 11.44752502 C-31.12979085 9.32284559 -27.35440623 7.11506732 -23.60009766 4.85107422 C-22.64941406 4.28356445 -21.69873047 3.71605469 -20.71923828 3.13134766 C-18.94601572 2.06677856 -17.18231516 0.9861307 -15.43017578 -0.11279297 C-14.640625 -0.58362305 -13.85107422 -1.05445313 -13.03759766 -1.53955078 C-12.36108154 -1.9572876 -11.68456543 -2.37502441 -10.98754883 -2.80541992 C-6.90860053 -3.9960837 -3.60833503 -1.8534377 0 0 Z " fill="#141414" transform="translate(162.80712890625,144.44189453125)"/>
<path d="M0 0 C2.0396971 1.49543877 4.06179245 3.01528616 6.0625 4.5625 C6.98804688 5.26890625 7.91359375 5.9753125 8.8671875 6.703125 C14.88413565 11.61415433 14.88413565 11.61415433 15.6171875 15.51171875 C14.86230564 19.663569 13.21416954 20.69084219 9.875 23.1875 C8.91207031 23.92226562 7.94914063 24.65703125 6.95703125 25.4140625 C6.00183594 26.12304688 5.04664063 26.83203125 4.0625 27.5625 C3.20011719 28.33335937 2.33773437 29.10421875 1.44921875 29.8984375 C-0.9375 31.5625 -0.9375 31.5625 -2.9296875 31.57421875 C-5.66900239 30.19390249 -7.74901005 28.3883433 -10.0625 26.375 C-26.23707975 12.84248308 -43.13293434 8.00569685 -64.109375 9.83984375 C-71.38555245 10.82947928 -77.47047578 13.133739 -83.9375 16.5625 C-84.78183594 17.0059375 -85.62617188 17.449375 -86.49609375 17.90625 C-101.80145854 26.5020867 -111.53840565 39.41525258 -117.9375 55.5625 C-118.27910156 56.42101562 -118.62070312 57.27953125 -118.97265625 58.1640625 C-120.95953295 64.1339339 -121.20777046 69.95080069 -121.25 76.1875 C-121.25563965 76.97527832 -121.2612793 77.76305664 -121.26708984 78.57470703 C-121.19873068 84.12570268 -120.31685328 89.19546499 -118.9375 94.5625 C-118.73769531 95.42359375 -118.53789062 96.2846875 -118.33203125 97.171875 C-115.6538252 107.02192139 -110.7157265 115.96267029 -103.9375 123.5625 C-103.9375 124.2225 -103.9375 124.8825 -103.9375 125.5625 C-103.34453125 125.82804688 -102.7515625 126.09359375 -102.140625 126.3671875 C-99.88027953 127.59354515 -98.4932971 128.87326459 -96.6875 130.6875 C-83.50251091 142.40204421 -66.15822738 146.41390167 -48.91015625 145.84375 C-33.23190808 144.73378553 -17.76101371 136.61596047 -6.640625 125.6640625 C-4.26710414 124.12889534 -2.72793883 124.30079109 0.0625 124.5625 C2.00708008 125.75585938 2.00708008 125.75585938 3.83203125 127.40625 C4.82299805 128.28603516 4.82299805 128.28603516 5.83398438 129.18359375 C6.50751953 129.80363281 7.18105469 130.42367187 7.875 131.0625 C8.56787109 131.68253906 9.26074219 132.30257812 9.97460938 132.94140625 C11.68077573 134.47107264 13.37586598 136.0113679 15.0625 137.5625 C14.1515913 145.22484964 7.81391702 149.35918848 2.1015625 153.93359375 C-18.11762849 168.73603852 -43.66097804 174.14310027 -68.390625 171.27832031 C-85.4513451 168.49700537 -100.49849825 161.23203772 -113.9375 150.5625 C-115.01451172 149.72525391 -115.01451172 149.72525391 -116.11328125 148.87109375 C-132.76788078 135.31845955 -144.55524033 113.49902133 -147.6171875 92.34375 C-149.96741765 64.59956966 -144.58046103 39.60124962 -126.9375 17.5625 C-120.22430065 9.79076169 -112.7777852 2.84370934 -103.9375 -2.4375 C-102.80699219 -3.11554688 -101.67648437 -3.79359375 -100.51171875 -4.4921875 C-91.90869657 -9.45207002 -83.63625209 -12.33088933 -73.9375 -14.4375 C-73.24986572 -14.61192627 -72.56223145 -14.78635254 -71.85375977 -14.96606445 C-47.62396562 -20.92945945 -20.31153047 -13.97798796 0 0 Z " fill="#131313" transform="translate(571.9375,132.4375)"/>
<path d="M0 0 C2.36687916 1.00033992 2.36687916 1.00033992 5.87109375 1.69140625 C10.48985417 2.81285346 14.43077608 4.77727951 18.58984375 7.0390625 C19.33121582 7.43689941 20.07258789 7.83473633 20.83642578 8.24462891 C26.36475323 11.27496238 31.4669111 14.60607658 36.15234375 18.8515625 C37.03792969 19.47417969 37.03792969 19.47417969 37.94140625 20.109375 C39.15234375 21.8515625 39.15234375 21.8515625 39.1328125 25.13671875 C38.02616873 29.32962005 36.23668589 32.06401406 33.46484375 35.2890625 C33.04267578 35.82982422 32.62050781 36.37058594 32.18554688 36.92773438 C29.99717864 39.53859301 28.56820128 40.76618778 25.203125 41.45703125 C21.31667138 40.68571203 19.17783529 39.11904103 16.02734375 36.7265625 C2.95547825 27.15888487 -8.57268119 22.69561726 -24.84765625 23.8515625 C-32.81572581 25.17033896 -40.18063119 28.6104938 -45.51953125 34.78515625 C-49.61122723 41.04912903 -49.84622361 47.56955711 -48.84765625 54.8515625 C-46.87831225 61.30406021 -41.23535244 65.88354146 -35.56860352 69.17553711 C-33.04001552 70.46124693 -30.48921472 71.67040796 -27.91015625 72.8515625 C-26.5180896 73.50318359 -26.5180896 73.50318359 -25.09790039 74.16796875 C-19.73630083 76.64177211 -14.34753113 78.87571052 -8.78515625 80.8515625 C10.02209572 87.56411088 30.97831803 97.51691499 40.58984375 116.1015625 C41.15368847 117.33275968 41.6714068 118.58567664 42.15234375 119.8515625 C42.508125 120.7590625 42.86390625 121.6665625 43.23046875 122.6015625 C44.28403142 126.31581735 44.49689613 129.77267654 44.46484375 133.6015625 C44.4592041 134.30748535 44.45356445 135.0134082 44.44775391 135.74072266 C44.14540708 148.82545519 38.27084414 159.20542182 29.48046875 168.68359375 C14.79041257 182.36309238 -4.09107046 186.87273505 -23.6796875 186.2578125 C-42.62668678 185.11578203 -57.59435886 176.98853846 -71.84765625 164.8515625 C-72.76417969 164.15546875 -73.68070312 163.459375 -74.625 162.7421875 C-75.72521484 161.80632812 -75.72521484 161.80632812 -76.84765625 160.8515625 C-76.84765625 160.1915625 -76.84765625 159.5315625 -76.84765625 158.8515625 C-77.50765625 158.8515625 -78.16765625 158.8515625 -78.84765625 158.8515625 C-79.69921875 156.27734375 -79.69921875 156.27734375 -79.84765625 152.8515625 C-78.35408393 150.21544527 -76.34246209 148.18579428 -74.22265625 146.0390625 C-73.42021484 145.16217773 -73.42021484 145.16217773 -72.6015625 144.26757812 C-70.28103233 141.83130375 -68.36890651 140.08871147 -65.2890625 138.6875 C-61.58825337 138.93619437 -60.08796392 140.78952774 -57.41015625 143.2890625 C-45.62478331 153.77504154 -33.19754087 160.00579139 -17.28515625 160.2265625 C-16.49343018 160.24074219 -15.7017041 160.25492188 -14.88598633 160.26953125 C-5.42434269 160.19105209 4.69569263 156.88336487 11.7578125 150.37109375 C16.87397306 144.53476982 17.5495251 139.2328116 17.40234375 131.7265625 C16.859045 125.47862687 13.76210751 121.84669109 9.15234375 117.8515625 C1.8932997 112.78875414 -6.08099191 109.62557476 -14.22265625 106.2890625 C-15.59531749 105.72004087 -16.96771529 105.1503833 -18.33984375 104.58007812 C-24.00462677 102.23090201 -29.67827075 99.91138805 -35.390625 97.6796875 C-50.7584471 91.55142469 -65.88276443 81.67336912 -73.09765625 66.3515625 C-78.40099301 53.35838744 -78.31265451 40.85728536 -72.84765625 27.8515625 C-66.11718576 14.39062153 -55.52067138 6.48445958 -41.84765625 0.8515625 C-38.85105221 -0.12460397 -35.96875005 -0.74263563 -32.84765625 -1.1484375 C-31.88279297 -1.31085938 -31.88279297 -1.31085938 -30.8984375 -1.4765625 C-21.19623829 -2.88107134 -9.15597652 -3.966922 0 0 Z " fill="#131313" transform="translate(358.84765625,118.1484375)"/>
<path d="M0 0 C3.06103516 1.47119141 3.06103516 1.47119141 6.2890625 3.3515625 C7.16587173 3.85724258 7.16587173 3.85724258 8.06039429 4.37313843 C9.92038262 5.44854041 11.77268025 6.53645359 13.625 7.625 C14.84456417 8.33287253 16.06461305 9.03991065 17.28515625 9.74609375 C20.27514175 11.47884765 23.2589119 13.22195948 26.24035645 14.96936035 C29.12391562 16.65828786 32.01143096 18.34041019 34.8984375 20.0234375 C36.59898209 21.01558428 38.29951259 22.00775522 40 23 C36.45573177 25.88083859 33.32410055 28.4115549 29 30 C24.48530217 28.86259893 20.84995711 26.87965954 16.90234375 24.453125 C15.77119141 23.77378906 14.64003906 23.09445313 13.47460938 22.39453125 C11.69661999 21.32029338 9.92262507 20.24079821 8.15600586 19.14794922 C6.43558009 18.0875072 4.70035686 17.05119072 2.96484375 16.015625 C1.9399585 15.38946289 0.91507324 14.76330078 -0.14086914 14.11816406 C-2.91230877 12.71545203 -2.91230877 12.71545203 -5.55249023 13.6418457 C-6.36016846 14.09003662 -7.16784668 14.53822754 -8 15 C-8.82757813 15.42273193 -9.65515625 15.84546387 -10.5078125 16.28100586 C-11.80332031 16.99075562 -11.80332031 16.99075562 -13.125 17.71484375 C-14.07890625 18.23626953 -15.0328125 18.75769531 -16.015625 19.29492188 C-17.00046875 19.83697266 -17.9853125 20.37902344 -19 20.9375 C-19.98484375 21.47568359 -20.9696875 22.01386719 -21.984375 22.56835938 C-27.3996589 25.52418145 -27.3996589 25.52418145 -32.69433594 28.6875 C-35 30 -35 30 -37.015625 29.84765625 C-39.35719265 28.84741968 -41.54081372 27.70453331 -43.75 26.4375 C-44.54921875 25.98246094 -45.3484375 25.52742188 -46.171875 25.05859375 C-46.77515625 24.70925781 -47.3784375 24.35992187 -48 24 C-45.55992682 21.27393702 -42.92340749 19.6869603 -39.73046875 17.92578125 C-38.68286377 17.3438501 -37.63525879 16.76191895 -36.5559082 16.16235352 C-35.4443335 15.55190186 -34.33275879 14.9414502 -33.1875 14.3125 C-24.24344715 9.41612418 -24.24344715 9.41612418 -15.4453125 4.265625 C-14.81471924 3.88494873 -14.18412598 3.50427246 -13.53442383 3.11206055 C-11.93903752 2.13962814 -10.35380878 1.15058392 -8.76953125 0.16015625 C-5.26205038 -1.30912699 -3.67529485 -0.89255966 0 0 Z " fill="#F6F6F6" transform="translate(159,156)"/>
<path d="M0 0 C0.43332109 6.93533384 0.72954895 13.86716434 0.93383789 20.81298828 C1.01901382 23.17108472 1.13481143 25.52829112 1.2824707 27.88330078 C2.43907162 46.81313591 2.43907162 46.81313591 -1.49786377 51.95709229 C-5.43796333 55.30813828 -9.94986437 57.22685244 -14.73831177 59.07684326 C-18.14115463 60.46578683 -21.18542057 62.3432514 -24.3125 64.2578125 C-26.54124865 65.5475976 -28.77040751 66.83667415 -31 68.125 C-31.86625 68.62773437 -31.86625 68.62773437 -32.75 69.140625 C-34.43628998 70.11927543 -36.12436109 71.09485487 -37.8125 72.0703125 C-39.27623047 72.91746826 -39.27623047 72.91746826 -40.76953125 73.78173828 C-43 75 -43 75 -44 75 C-44 70.38 -44 65.76 -44 61 C-40.08812957 58.73509852 -36.1747762 56.47330335 -32.25683594 54.21899414 C-30.92509477 53.45154184 -29.59435388 52.68235102 -28.26464844 51.91137695 C-26.35092612 50.80219036 -24.4336695 49.69934776 -22.515625 48.59765625 C-21.92380432 48.25283707 -21.33198364 47.90801788 -20.722229 47.55274963 C-17.86046079 45.91695749 -15.26681091 44.56433107 -12 44 C-12.05236816 42.88028809 -12.10473633 41.76057617 -12.15869141 40.60693359 C-12.3402307 36.43685419 -12.45466749 32.26711951 -12.54931641 28.09423828 C-12.5994898 26.29155695 -12.66765232 24.48928035 -12.75439453 22.68798828 C-13.45832842 7.6900557 -13.45832842 7.6900557 -9.79980469 3.45019531 C-6.61756025 1.50237315 -3.78363497 0 0 0 Z " fill="#F6F6F6" transform="translate(205,190)"/>
<path d="M0 0 C3.96 1.98 7.92 3.96 12 6 C12 18.54 12 31.08 12 44 C13.65 44.66 15.3 45.32 17 46 C18.72161751 46.87941268 20.42954951 47.78598361 22.125 48.71484375 C23.07890625 49.23626953 24.0328125 49.75769531 25.015625 50.29492188 C26.00046875 50.83697266 26.9853125 51.37902344 28 51.9375 C28.98484375 52.47568359 29.9696875 53.01386719 30.984375 53.56835938 C33.66215451 55.03571018 36.33856349 56.50320106 39 58 C39.92063232 58.48452637 40.84126465 58.96905273 41.78979492 59.46826172 C42.5191626 59.97373535 43.24853027 60.47920898 44 61 C44.48828125 64.35546875 44.48828125 64.35546875 44.3125 68.1875 C44.26738281 69.45980469 44.22226563 70.73210937 44.17578125 72.04296875 C44.08876953 73.50669922 44.08876953 73.50669922 44 75 C35.70565057 70.97740664 27.68756538 66.62188161 19.75 61.9375 C18.72648437 61.33873047 17.70296875 60.73996094 16.6484375 60.12304688 C13.75806613 58.42708989 10.87145451 56.72781687 8 55 C7.30624268 54.69662216 6.61248535 54.39324432 5.89770508 54.08067322 C3.52653804 52.92142613 1.83480058 51.90579213 0 50 C-1.11339661 46.18553576 -0.93379451 42.51944773 -0.78125 38.57421875 C-0.76993042 37.47149124 -0.75861084 36.36876373 -0.74694824 35.23262024 C-0.70221804 31.71580138 -0.60185222 28.20308298 -0.5 24.6875 C-0.4598691 22.30149123 -0.42336766 19.91541846 -0.390625 17.52929688 C-0.30249152 11.68462171 -0.16445807 5.84300558 0 0 Z " fill="#F7F7F7" transform="translate(105,190)"/>
<path d="M0 0 C2.06338861 19.84760073 2.06338861 19.84760073 -1.1953125 24.82617188 C-4.62468268 27.92579492 -8.69640524 29.40570229 -13 31 C-14.6689216 31.99623214 -16.3362085 32.9952236 -18 34 C-18.66 34 -19.32 34 -20 34 C-21.17211391 26.47094768 -22.37659173 18.37339529 -20 11 C-15.96143273 6.26167041 -6.53055812 0 0 0 Z " fill="#F9F9F9" transform="translate(149,185)"/>
<path d="M0 0 C2.72892406 1.36570519 5.29762945 2.93166379 7.875 4.5625 C8.56335938 4.98724609 9.25171875 5.41199219 9.9609375 5.84960938 C11.64600952 6.8910775 13.32377031 7.94435916 15 9 C11.7958954 12.52292098 8.20018561 14.97834095 4.125 17.375 C3.52558594 17.75527344 2.92617187 18.13554687 2.30859375 18.52734375 C-0.69767104 20.29458401 -2.4710243 21.08676321 -5.953125 20.515625 C-9.71661514 18.6435299 -13.30405708 16.58953825 -16.875 14.375 C-17.56335938 13.95476562 -18.25171875 13.53453125 -18.9609375 13.1015625 C-20.64391658 12.07307528 -22.32242532 11.037279 -24 10 C-20.3792685 6.95912494 -16.68835051 4.49583804 -12.5625 2.1875 C-10.92474609 1.24970703 -10.92474609 1.24970703 -9.25390625 0.29296875 C-5.40477448 -1.23651818 -3.92234878 -1.25276539 0 0 Z " fill="#F7F7F7" transform="translate(159,220)"/>
<path d="M0 0 C4.91393392 1.43638068 9.00392773 3.54318247 13.375 6.125 C15.56125 7.40375 17.7475 8.6825 20 10 C20 17.59 20 25.18 20 33 C16.8956644 31.75826576 14.30709821 30.7118012 11.484375 29.08984375 C10.87335938 28.73986328 10.26234375 28.38988281 9.6328125 28.02929688 C9.01148438 27.66900391 8.39015625 27.30871094 7.75 26.9375 C7.11320313 26.57333984 6.47640625 26.20917969 5.8203125 25.83398438 C1.14074248 23.14074248 1.14074248 23.14074248 0 22 C-0.08700342 20.36527118 -0.10701063 18.72685945 -0.09765625 17.08984375 C-0.09443359 16.10048828 -0.09121094 15.11113281 -0.08789062 14.09179688 C-0.07951172 13.05087891 -0.07113281 12.00996094 -0.0625 10.9375 C-0.05798828 9.89271484 -0.05347656 8.84792969 -0.04882812 7.77148438 C-0.03699913 5.1809334 -0.02051689 2.59049441 0 0 Z " fill="#F9F9F9" transform="translate(161,186)"/>
</svg>
